<svg width="867" height="218" viewBox="0 0 867 218" fill="none" xmlns="http://www.w3.org/2000/svg">
<path d="M128.7 61.1001H64.2002V76.4001H128.7V61.1001Z" fill="black"/>
<path d="M110 85.5H82.7002V100.8H110V85.5Z" fill="black"/>
<path d="M110 109.8H82.7002V125.1H110V109.8Z" fill="black"/>
<path d="M155.4 55.5999C155.4 42.4999 144.8 31.8999 131.7 31.8999H61.0999C53.3999 31.8999 46.4999 35.5999 42.1999 41.2999L19.7999 63.8999C15.6999 67.9999 13.3999 73.5999 13.3999 79.3999V139.3C13.3999 160.3 30.3999 177.3 51.3999 177.3H110.1C116.5 177.3 122.6 174.5 126.8 169.5L149.3 142.8C149.3 142.8 156.4 134.1 155.4 126.3V55.5999ZM145.9 126.3C145.9 134.1 139.6 140.5 131.7 140.5H94.1999C92.2999 140.5 90.4999 141.3 89.0999 142.6L70.8999 160.9C70.1999 161.6 69.0999 161.1 69.0999 160.1V145.4C69.0999 142.7 66.8999 140.5 64.1999 140.5H61.0999C53.2999 140.5 46.8999 134.2 46.8999 126.3V55.5999C46.8999 47.7999 53.1999 41.3999 61.0999 41.3999H131.8C139.6 41.3999 146 47.6999 146 55.5999V126.3H145.9Z" fill="black"/>
<path d="M251.4 44.1001H177.7V60.3001H204.5V144.5H224.7V60.3001H251.4V44.1001Z" fill="black"/>
<path d="M311.8 68.4C305.8 65.1 299 63.5 291.4 63.5C283.5 63.5 276.6 65.2 270.5 68.5C264.5 71.9 259.8 76.6 256.4 82.9C253 89.1 251.4 96.4 251.4 104.6C251.4 112.8 253.1 120 256.5 126.2C259.9 132.4 264.7 137.2 270.8 140.6C276.9 144 283.8 145.7 291.5 145.7C301 145.7 309 143.2 315.5 138.3C322 133.3 326.4 127 328.8 119.4H307C303.9 125.8 298.5 129 291.1 129C285.9 129 281.5 127.4 278 124.1C274.5 120.9 272.5 116.3 272 110.6H330.3C330.7 108.3 330.8 105.7 330.8 102.8C330.8 95 329.2 88.2 325.8 82.1C322.5 76.3 317.8 71.6 311.8 68.4ZM272 97.1C272.8 91.7 274.9 87.6 278.3 84.5C281.7 81.5 285.9 80 290.9 80C296.2 80 300.7 81.6 304.3 84.7C307.9 87.8 309.8 92 309.9 97.1H272Z" fill="black"/>
<path d="M406 64.7998H384.4L369.7 89.3998L353.5 64.7998H330.7L357.1 104.5L331 144.5H352.6L367.1 119.8L383.5 144.5H406.3L379.8 104.5L406 64.7998Z" fill="black"/>
<path d="M410.9 64.7998V119.8C410.9 136.3 419.4 144.6 436.4 144.6H449.1V127.6H439.7C436.6 127.6 434.4 127 433.2 125.8C431.9 124.6 431.2 122.6 431.2 119.9V81.2998H449V64.7998H430H410.9Z" fill="black"/>
<path d="M519.1 68.5C513.6 65.1 507.4 63.5 500.6 63.5C494.7 63.5 489.6 64.7 485 67.2C480.5 69.7 476.9 72.7 474.3 76.3V64.8H454.1V177.3H474.3V133.2C477.1 136.8 480.7 139.9 485.2 142.3C489.7 144.7 494.8 145.9 500.7 145.9C507.5 145.9 513.7 144.2 519.2 140.7C524.7 137.2 529.1 132.3 532.3 126.1C535.5 119.8 537.1 112.6 537.1 104.4C537.1 96.2 535.5 89 532.3 82.9C529 76.7 524.7 71.9 519.1 68.5ZM513.5 117C511.5 120.5 508.9 123.3 505.7 125.2C502.5 127.1 499 128.1 495.3 128.1C491.6 128.1 488.2 127.1 485 125.3C481.8 123.4 479.2 120.7 477.2 117.2C475.2 113.7 474.2 109.5 474.2 104.7C474.2 99.9 475.2 95.8 477.2 92.2C479.2 88.6 481.7 85.9 485 84.1C488.2 82.2 491.6 81.3 495.3 81.3C499 81.3 502.5 82.2 505.7 84C508.9 85.8 511.5 88.5 513.5 92C515.5 95.5 516.5 99.6 516.5 104.4C516.5 109.3 515.5 113.5 513.5 117Z" fill="black"/>
<path d="M604.1 76.2C601.4 72.6 597.8 69.5 593.3 67.1C588.8 64.7 583.6 63.5 577.7 63.5C570.8 63.5 564.7 65.2 559.2 68.5C553.7 71.9 549.3 76.6 546.1 82.9C542.9 89.1 541.3 96.3 541.3 104.3C541.3 112.5 542.9 119.7 546.1 126C549.3 132.3 553.7 137.2 559.2 140.6C564.7 144.1 570.8 145.8 577.5 145.8C583.4 145.8 588.7 144.6 593.3 142.1C597.9 139.6 601.4 136.6 604.1 132.8V144.4H624.4V64.8H604.1V76.2ZM601.2 117.3C599.3 120.8 596.7 123.5 593.4 125.3C590.1 127.2 586.6 128.1 582.9 128.1C579.2 128.1 575.8 127.1 572.6 125.2C569.4 123.2 566.8 120.5 564.8 116.9C562.8 113.3 561.8 109.1 561.8 104.3C561.8 99.5 562.8 95.4 564.8 91.9C566.8 88.4 569.3 85.7 572.5 83.9C575.7 82.1 579.1 81.2 582.9 81.2C586.6 81.2 590.1 82.1 593.4 84C596.7 85.9 599.3 88.5 601.2 92C603.1 95.5 604.1 99.7 604.1 104.6C604.1 109.5 603.1 113.8 601.2 117.3Z" fill="black"/>
<path d="M694.6 68.5C689.1 65.1 682.9 63.5 676.1 63.5C670.2 63.5 665 64.7 660.5 67.2C656 69.7 652.4 72.7 649.8 76.3V64.8H629.6V177.3H649.8V133.2C652.6 136.8 656.2 139.9 660.7 142.3C665.2 144.7 670.3 145.9 676.2 145.9C683 145.9 689.2 144.2 694.7 140.7C700.2 137.2 704.6 132.3 707.8 126.1C711 119.8 712.6 112.6 712.6 104.4C712.6 96.2 711 89 707.8 82.9C704.5 76.7 700.1 71.9 694.6 68.5ZM689 117C687 120.5 684.4 123.3 681.2 125.2C678 127.1 674.5 128.1 670.8 128.1C667.1 128.1 663.7 127.1 660.5 125.3C657.3 123.4 654.7 120.7 652.7 117.2C650.7 113.7 649.7 109.5 649.7 104.7C649.7 99.9 650.7 95.8 652.7 92.2C654.7 88.6 657.2 85.9 660.5 84.1C663.7 82.2 667.1 81.3 670.8 81.3C674.5 81.3 678 82.2 681.2 84C684.4 85.8 687 88.5 689 92C691 95.5 691.9 99.6 691.9 104.4C691.9 109.3 690.9 113.5 689 117Z" fill="black"/>
<path d="M777.3 68.4C771.3 65.1 764.5 63.5 756.9 63.5C749 63.5 742.1 65.2 736.1 68.5C730.1 71.9 725.3 76.6 722 82.9C718.6 89.1 717 96.4 717 104.6C717 112.8 718.7 120 722.1 126.2C725.5 132.4 730.2 137.2 736.4 140.6C742.5 144 749.3 145.7 757 145.7C766.5 145.7 774.5 143.2 781.1 138.3C787.6 133.3 792 127 794.3 119.4H772.6C769.4 125.8 764.1 129 756.6 129C751.4 129 747.1 127.4 743.5 124.1C739.9 120.9 737.9 116.3 737.4 110.6H795.7C796.1 108.3 796.3 105.7 796.3 102.8C796.3 95 794.6 88.2 791.3 82.1C787.9 76.3 783.3 71.6 777.3 68.4ZM737.5 97.1C738.2 91.7 740.3 87.6 743.7 84.5C747.1 81.5 751.3 80 756.3 80C761.6 80 766 81.6 769.7 84.7C773.3 87.8 775.2 92 775.3 97.1H737.5Z" fill="black"/>
<path d="M830.5 67.2001C826.3 69.6001 822.9 72.9001 820.3 77.1001V64.8001H800.1V144.6H820.3V104.9C820.3 97.5001 821.9 92.3001 825.1 89.3001C828.3 86.3001 833.1 84.8001 839.5 84.8001H844.8V63.6001C839.4 63.6001 834.7 64.8001 830.5 67.2001Z" fill="black"/>
<path d="M410.9 44.1001L430 64.8001V44.1001H410.9Z" fill="black"/>
</svg>
