<svg width="1002" height="1002" viewBox="0 0 1002 1002" fill="none" xmlns="http://www.w3.org/2000/svg">
<path d="M769.9 262.4H409.5V347.7H769.9V262.4Z" fill="black"/>
<path d="M666.2 398.7H513.3V484H666.2V398.7Z" fill="black"/>
<path d="M666.2 535.1H513.3V620.4H666.2V535.1Z" fill="black"/>
<path d="M919.7 232C919.7 158.8 860.4 99.5 787.2 99.5H392.2C349 99.5 310.6 120.3 286.4 152.3L161.7 278C138.9 301 126.1 332 126.1 364.4V699.5C126.1 816.7 221.1 911.8 338.4 911.8H666.4C702.4 911.8 736.5 895.9 759.7 868.4L885.6 719C885.6 719 925.3 670.6 919.7 626.9V232ZM866.4 627C866.4 670.7 831 706.2 787.2 706.2H577.4C566.8 706.2 556.6 710.4 549.1 717.9L447.1 820C443.3 823.8 436.8 821.1 436.8 815.7V733.4C436.8 718.3 424.6 706.1 409.5 706.1H392.3C348.6 706.1 313.2 670.7 313.2 626.9V232C313.2 188.3 348.6 152.9 392.3 152.9H787.3C831 152.9 866.4 188.3 866.4 232V627Z" fill="black"/>
</svg>
