<svg width="100" height="100" viewBox="0 0 100 100" fill="none" xmlns="http://www.w3.org/2000/svg">
<path d="M87.6667 69.3333C87.6667 71.5434 86.7887 73.6631 85.2259 75.2259C83.6631 76.7887 81.5435 77.6666 79.3333 77.6666H29.3333L12.6667 94.3333V27.6666C12.6667 25.4565 13.5446 23.3369 15.1074 21.7741C16.6703 20.2113 18.7899 19.3333 21 19.3333H79.3333C81.5435 19.3333 83.6631 20.2113 85.2259 21.7741C86.7887 23.3369 87.6667 25.4565 87.6667 27.6666V69.3333Z" stroke="black" stroke-width="5" stroke-linecap="round" stroke-linejoin="round"/>
<rect x="22.6667" y="29.3333" width="55" height="21" rx="2.5" stroke="black" stroke-width="5"/>
<rect x="20.1667" y="56.8333" width="60" height="6" rx="3" fill="black"/>
<rect x="20.1667" y="65.8333" width="36" height="6" rx="3" fill="black"/>
</svg>
